Coordinates
version=1
nRows=65
nColumns=12
inDegrees=yes

Units are S.I. units (second, meters, Newtons, ...)
Angles are in degrees

endheader
time	SC_y	SC_z	SC_x	AC_y	AC_z	AC_x	GH_y	GH_z	GH_yy	EL_x	PS_y
       0.0              -41.85          5.169          9.251          62.04          0.361          15.69          7.803          16.06         -136.0          13.58          23.72
   0.04588              -41.85           5.17           9.25          62.04         0.3605          15.69          7.826          16.07         -136.0           13.6          23.73
   0.09176              -41.85          5.173           9.25          62.04         0.3601          15.69          7.849          16.07         -136.0          13.62          23.74
    0.1376              -41.84          5.175          9.249          62.04         0.3596          15.69          7.874          16.07         -136.0          13.63          23.75
    0.1835              -41.84          5.177          9.248          62.03         0.3591          15.69          7.901          16.07         -136.0          13.65          23.77
    0.2294              -41.84           5.18          9.247          62.03         0.3586          15.69           7.93          16.07         -136.0          13.67          23.78
    0.2753              -41.83          5.182          9.245          62.03         0.3581          15.69           7.96          16.08         -135.9          13.69           23.8
    0.3212              -41.83          5.185          9.244          62.03         0.3574          15.69          7.993          16.08         -135.9          13.72          23.81
     0.367              -41.82          5.188          9.243          62.02         0.3568          15.68          8.028          16.08         -135.9          13.74          23.83
    0.4129              -41.82          5.191          9.242          62.02         0.3561          15.68          8.065          16.09         -135.9          13.77          23.85
    0.4588              -41.81          5.195           9.24          62.02         0.3554          15.68          8.105          16.09         -135.8           13.8          23.87
    0.5047               -41.8          5.199          9.239          62.01         0.3546          15.68          8.148          16.09         -135.8          13.83          23.89
    0.5506               -41.8          5.203          9.237          62.01         0.3537          15.68          8.195           16.1         -135.8          13.86          23.92
    0.5964              -41.79          5.207          9.235          62.01         0.3528          15.67          8.245           16.1         -135.7           13.9          23.94
    0.6423              -41.78          5.212          9.233           62.0         0.3517          15.67            8.3          16.11         -135.7          13.94          23.97
    0.6882              -41.77          5.217          9.231           62.0         0.3506          15.67          8.359          16.11         -135.7          13.98           24.0
    0.7341              -41.77          5.223          9.229          61.99         0.3495          15.67          8.423          16.12         -135.6          14.03          24.03
      0.78              -41.76          5.229          9.226          61.99         0.3482          15.66          8.493          16.13         -135.6          14.08          24.07
    0.8258              -41.75          5.236          9.223          61.98         0.3467          15.66          8.569          16.13         -135.5          14.13          24.11
    0.8717              -41.73          5.243           9.22          61.98         0.3452          15.66          8.653          16.14         -135.5          14.19          24.15
    0.9176              -41.72          5.251          9.217          61.97         0.3435          15.65          8.745          16.15         -135.4          14.26           24.2
    0.9635              -41.71           5.26          9.213          61.96         0.3416          15.65          8.846          16.16         -135.3          14.33          24.25
     1.009              -41.69           5.27          9.209          61.95         0.3395          15.64          8.958          16.17         -135.3          14.41           24.3
     1.055              -41.67          5.281          9.205          61.94         0.3372          15.64          9.081          16.18         -135.2           14.5          24.37
     1.101              -41.65          5.293            9.2          61.93         0.3347          15.63          9.219          16.19         -135.1           14.6          24.44
     1.147              -41.63          5.306          9.194          61.92         0.3318          15.62          9.372          16.21         -135.0          14.71          24.51
     1.193              -41.61          5.321          9.188          61.91         0.3286          15.62          9.544          16.22         -134.9          14.83           24.6
     1.239              -41.58          5.338          9.181          61.89         0.3251          15.61          9.738          16.24         -134.8          14.97           24.7
     1.285              -41.55          5.358          9.173          61.88          0.321           15.6          9.956          16.26         -134.6          15.13          24.81
     1.331              -41.51          5.379          9.164          61.86         0.3164          15.59           10.2          16.28         -134.4          15.31          24.94
     1.376              -41.47          5.404          9.154          61.84         0.3111          15.58          10.49          16.31         -134.2          15.51          25.08
     1.422              -41.43          5.433          9.142          61.81         0.3051          15.56          10.81          16.34         -134.0          15.75          25.24
     1.468              -41.37          5.466          9.128          61.78         0.2981          15.54          11.19          16.37         -133.8          16.02          25.43
     1.514              -41.31          5.504          9.113          61.75           0.29          15.52          11.62          16.41         -133.5          16.33          25.66
      1.56              -41.24          5.549          9.094          61.71         0.2806           15.5          12.13          16.46         -133.2           16.7          25.91
     1.606              -41.15          5.602          9.072          61.66         0.2694          15.48          12.73          16.51         -132.7          17.13          26.22
     1.652              -41.05          5.665          9.046          61.61         0.2561          15.44          13.45          16.57         -132.3          17.64          26.58
     1.698              -40.93           5.74          9.015          61.54         0.2402          15.41          14.31          16.65         -131.7          18.26          27.02
     1.743              -40.79          5.831          8.978          61.46          0.221          15.36          15.34          16.75         -131.0           19.0          27.54
     1.789              -40.61          5.942          8.932          61.37         0.1975           15.3          16.61          16.86         -130.2          19.91          28.18
     1.835              -40.38          6.079          8.875          61.25         0.1685          15.23          18.17           17.0         -129.1          21.04          28.98
     1.881              -40.11           6.25          8.805           61.1         0.1323          15.15          20.12          17.18         -127.8          22.44          29.96
     1.927              -39.76          6.466          8.716          60.91        0.08675          15.04          22.57           17.4         -126.2           24.2          31.21
     1.973              -39.32           6.74          8.602          60.67        0.02882           14.9          25.69          17.68         -124.1          26.45          32.79
     2.019              -38.75          7.091          8.458          60.37       -0.04532          14.72          29.69          18.05         -121.4          29.32          34.82
     2.065              -38.03          7.541          8.272          59.98        -0.1405           14.5          34.81          18.51         -118.0          33.01          37.42
      2.11               -37.1          8.116          8.034          59.48         -0.262           14.2          41.36           19.1         -113.6          37.71          40.74
     2.156              -35.93          8.839          7.736          58.85        -0.4148          13.84          49.59          19.85         -108.1          43.63          44.91
     2.202              -34.51           9.72          7.372          58.08         -0.601          13.39          59.62          20.76         -101.4          50.85           50.0
     2.248              -32.86          10.74           6.95           57.2        -0.8169          12.88          71.25          21.81         -93.69          59.21           55.9
     2.294              -31.08          11.85          6.494          56.24         -1.051          12.32          83.84          22.95         -85.28          68.26          62.28
      2.34               -29.3          12.95          6.037          55.27         -1.284          11.76          96.42          24.09         -76.88          77.32          68.67
     2.386              -27.65          13.98          5.616          54.39           -1.5          11.24          108.1          25.14         -69.12          85.68          74.56
     2.432              -26.23          14.86          5.252          53.62         -1.686           10.8          118.1          26.05         -62.42          92.89          79.65
     2.478              -25.06          15.58          4.954          52.99         -1.839          10.43          126.3           26.8         -56.92          98.81          83.83
     2.523              -24.13          16.15          4.716          52.49         -1.961          10.14          132.9          27.39         -52.55          103.5          87.15
     2.569              -23.41           16.6           4.53           52.1         -2.056          9.913          138.0          27.86         -49.13          107.2          89.75
     2.615              -22.84          16.96          4.386           51.8          -2.13          9.736          142.0          28.22         -46.47          110.1          91.77
     2.661               -22.4          17.23          4.272          51.56         -2.188          9.598          145.1           28.5         -44.38          112.3          93.35
     2.707              -22.05          17.45          4.183          51.37         -2.234          9.489          147.6          28.72         -42.74          114.1           94.6
     2.753              -21.77          17.62          4.113          51.22          -2.27          9.402          149.5           28.9         -41.44          115.5          95.59
     2.799              -21.55          17.75          4.056           51.1         -2.299          9.333          151.1          29.04          -40.4          116.6          96.38
     2.845              -21.37          17.86           4.01          51.01         -2.322          9.276          152.3          29.16         -39.56          117.5          97.02
      2.89              -21.23          17.96          3.973          50.93         -2.341           9.23          153.4          29.25         -38.86          118.3          97.55
     2.936              -21.11          18.03          3.942          50.86         -2.357          9.192          154.2          29.33         -38.29          118.9          97.98
